<?xml version="1.0" encoding="UTF-8" standalone="no"?>
<svg
   width="24"
   height="24"
   viewBox="0 0 24 24"
   version="1.1"
   id="svg2"
   sodipodi:docname="trash-hover.svg"
   inkscape:version="1.3.2 (091e20e, 2023-11-25, custom)"
   xmlns:inkscape="http://www.inkscape.org/namespaces/inkscape"
   xmlns:sodipodi="http://sodipodi.sourceforge.net/DTD/sodipodi-0.dtd"
   xmlns="http://www.w3.org/2000/svg"
   xmlns:svg="http://www.w3.org/2000/svg">
  <defs
     id="defs2" />
  <sodipodi:namedview
     id="namedview2"
     pagecolor="#ffffff"
     bordercolor="#000000"
     borderopacity="0.25"
     inkscape:showpageshadow="2"
     inkscape:pageopacity="0.0"
     inkscape:pagecheckerboard="0"
     inkscape:deskcolor="#d1d1d1"
     inkscape:zoom="24.188944"
     inkscape:cx="19.161646"
     inkscape:cy="12.712419"
     inkscape:window-width="1920"
     inkscape:window-height="1017"
     inkscape:window-x="-8"
     inkscape:window-y="-8"
     inkscape:window-maximized="1"
     inkscape:current-layer="svg2" />
  <path
     d="M5 20a2 2 0 0 0 2 2h10a2 2 0 0 0 2-2V8h2V6h-4V4a2 2 0 0 0-2-2H9a2 2 0 0 0-2 2v2H3v2h2zM9 4h6v2H9zM8 8h9v12H7V8z"
     id="path1"
     style="fill:#ff0000;fill-opacity:1" />
  <path
     d="M9 10h2v8H9zm4 0h2v8h-2z"
     id="path2"
     style="fill:#ff0000;fill-opacity:1" />
</svg>
